<?xml version="1.0" standalone="no"?><!DOCTYPE svg PUBLIC "-//W3C//DTD SVG 1.1//EN" "http://www.w3.org/Graphics/SVG/1.1/DTD/svg11.dtd"><svg t="1765648759330" class="icon" viewBox="0 0 1024 1024" version="1.1" xmlns="http://www.w3.org/2000/svg" p-id="7526" xmlns:xlink="http://www.w3.org/1999/xlink" width="200" height="200"><path d="M114.162645 1022.295287c-15.01273-3.795832-22.774994-9.980054-62.737859-49.814969C3.827607 925.011089 0.799471 920.36226 0.97007 895.625375c0-27.509122-8.359361-17.657018 143.644534-170.002112 153.539288-153.880486 145.649075-147.184467 173.328796-147.099168 12.88024 0 16.121625 0.682397 26.442877 5.970973l11.813995 5.970972 74.381256-74.381255-9.297657-14.628882c-18.126166-28.234169-35.186087-69.476528-42.905701-103.59637a326.569536 326.569536 0 0 1 63.079057-274.664726c106.198008-133.067383 296.799974-162.581046 437.586971-67.727886 77.281442 51.947459 127.522909 132.171737 141.938542 226.641049 2.985486 19.917458 2.985486 67.344038 0 88.45569a322.176606 322.176606 0 0 1-94.042814 187.744429 286.265473 286.265473 0 0 1-82.868566 59.752373c-40.90116 20.599854-75.703399 30.28136-122.87408 34.247791-67.088139 5.587124-141.597343-13.00819-198.577479-49.60172l-14.628882-9.297657-74.381255 74.381255 5.970972 11.941945c5.331225 10.278602 5.970972 13.477338 5.970972 26.314928 0.127949 27.765021 6.653369 19.917458-146.118222 172.689049-117.756104 117.542855-135.88227 134.943974-144.924028 139.081005-11.558096 5.331225-29.428364 7.293116-40.304063 4.520879zM745.934165 594.986919a274.024979 274.024979 0 0 0 196.31704-149.700806c59.325875-123.641777 19.40566-268.949653-94.98111-345.804596-27.210574-18.339415-65.211548-33.863943-100.952082-41.02911-24.779535-4.990027-77.153492-4.435579-102.956622 1.066245a281.190146 281.190146 0 0 0-104.577315 45.37939c-18.936512 13.434688-50.198817 44.696993-63.420256 63.420255a272.276337 272.276337 0 0 0 16.206925 337.231987 273.214633 273.214633 0 0 0 166.376878 91.099977c21.708749 3.326685 65.765995 2.473689 88.071842-1.578042z m-159.424961 314.584941a3453.354486 3453.354486 0 0 1-93.658965-27.765021c-1.066245-1.194194 51.478311-187.488531 53.610801-189.74897 0.980945-1.108895 180.920461 49.132572 188.256227 52.715155 2.644288 1.108895-0.127949 12.283143-22.391146 89.649885a16996.500634 16996.500634 0 0 0-27.082624 95.364957c-1.066245 3.710533-2.942836 6.653369-4.137031 6.65337-1.194194-0.127949-43.843997-12.240493-94.639911-26.912026z m124.196225 22.348496c0-2.26044 52.331307-184.801593 53.141653-185.39869 2.004541-1.450093 184.417745-52.459257 185.142792-51.64891 0.810346 0.810346-51.137113 184.972192-52.459257 185.953137-0.852996 0.810346-175.973084 50.795914-181.645508 51.94746-2.303089 0.469148-4.179681 0-4.17968-0.810347z m-303.026845-81.503772c36.081733-36.337631 68.197034-69.391228 71.395769-73.698858 7.293116-9.297657 17.27317-31.219655 20.130706-43.289549 1.108895-5.032677 2.26044-15.01273 2.473689-22.263197l0.469148-13.093489 7.762264-2.17514c4.39293-1.194194 8.231412-1.876591 8.61526-1.450093 0.980945 1.066245-51.478311 184.289795-53.141654 185.953137-0.852996 0.682397-28.873916 9.084408-62.43931 18.595314l-60.775968 17.27317 65.552746-65.765995z m353.52421-130.508394a58.472879 58.472879 0 0 1-2.516338-7.975513l-1.876591-6.65337 6.653369-1.194194c57.108085-9.681505 118.395851-36.508231 166.675427-73.059111 6.823968-5.331225 10.74775-7.293116 11.302198-5.715074 2.303089 7.037217 11.600746 40.517312 11.302197 40.901161-1.450093 1.450093-191.071114 54.677046-191.582911 53.7814z m-643.286967-55.444743c-2.13249-1.663342-50.284117-164.884135-53.90935-182.967652-0.682397-3.582583 6.226871-1.876591 92.72067 22.860294 90.460231 25.760481 93.488366 26.826726 94.767861 31.560854 1.194194 4.179681 0.469148 5.501824-5.331225 9.510906-3.582583 2.516338-32.797698 30.878457-64.955649 63.079057a2724.341417 2724.341417 0 0 1-59.283225 58.30228c-0.682397 0-2.388389-1.066245-3.966432-2.303089z m35.015488-186.720834c-50.667965-14.628882-92.294172-26.570827-92.422121-26.698777-0.682397-0.511798 53.781401-189.066573 54.804996-190.218118 0.938296-0.938296 188.597425 51.64891 190.601966 53.397553 0.383848 0.383848-11.472797 43.374849-26.357578 95.492907-24.566286 86.1526-27.423823 94.85316-30.835807 94.682561-2.13249-0.127949-45.166141-12.155194-95.834106-26.698776z m126.200765 22.945593c0.511798-1.322144 9.041758-30.835807 18.936512-65.424796l17.912917-62.951108 2.388389 13.690586c3.966432 23.71329 11.302198 50.667965 19.789508 74.253306 4.520879 12.624341 7.975513 22.988243 7.719614 23.244142-0.341198 0.255899-14.159734 4.30763-30.665207 9.041758-16.590773 4.648828-31.603503 8.956458-33.522745 9.553556-2.473689 0.682397-3.198735 0.255899-2.516338-1.450094zM209.399653 260.697769c-50.625315-14.458283-92.422121-27.082624-92.976569-27.892971-1.705992-2.644288-53.141654-184.289795-52.459256-185.014842 1.108895-1.066245 183.820648 51.350362 185.569289 53.141654 2.004541 2.17514 54.591747 186.763484 53.141654 186.635534L209.612902 260.740419z m91.611775-73.059111l-22.135247-77.025543-3.326685-11.941945 72.206116-20.599854c39.834915-11.302198 73.528259-21.111652 75.063652-21.6661 1.450093-0.682397-3.539934 5.970972-11.088949 14.330334A372.290124 372.290124 0 0 0 328.179352 223.080644a185.44134 185.44134 0 0 0-5.629773 23.926539c0 12.496392-4.904727-1.066245-21.538151-59.283226z" p-id="7527" fill="#1296db"></path></svg>